<?xml version="1.0" encoding="UTF-8"?>
<!DOCTYPE svg PUBLIC "-//W3C//DTD SVG 1.1//EN" "http://www.w3.org/Graphics/SVG/1.1/DTD/svg11.dtd">
<!-- Creator: CorelDRAW 2020 (64 Bit) -->
<svg xmlns="http://www.w3.org/2000/svg" xml:space="preserve" width="32.1732mm" height="52.605mm" version="1.1" style="shape-rendering:geometricPrecision; text-rendering:geometricPrecision; image-rendering:optimizeQuality; fill-rule:evenodd; clip-rule:evenodd"
viewBox="0 0 3217.32 5260.5"
 xmlns:xlink="http://www.w3.org/1999/xlink"
 xmlns:xodm="http://www.corel.com/coreldraw/odm/2003">
 <defs>
  <style type="text/css">
   <![CDATA[
    .str1 {stroke:#FEFEFE;stroke-width:26.46;stroke-miterlimit:22.9256}
    .str0 {stroke:#373435;stroke-width:20;stroke-miterlimit:22.9256}
    .fil3 {fill:none}
    .fil4 {fill:none;fill-rule:nonzero}
    .fil0 {fill:#010204}
    .fil2 {fill:#010204}
    .fil5 {fill:white}
    .fil1 {fill:white}
   ]]>
  </style>
   <clipPath id="id0">
    <path d="M-0.01 -0.02l3217.34 0 0 5260.54 -3217.34 0 0 -5260.54z"/>
   </clipPath>
 </defs>
 <g id="Camada_x0020_1">
  <metadata id="CorelCorpID_0Corel-Layer"/>
  <g>
  </g>
  <g style="clip-path:url(#id0)">
   <g>
    <g id="_2457632495792">
     <rect class="fil0 str0" x="1816.18" y="221.47" width="304.8" height="4817.56" rx="31.77" ry="26.43"/>
     <polygon class="fil0" points="998.66,997.88 999.79,992.29 1473.35,995.75 1498.33,1196.57 1385.69,1194.7 "/>
     <path class="fil0" d="M1384.43 1197.32l-387.62 -194.94 -441.61 1573.54 727.18 -1.82 102.05 -1376.78zm294.91 1389.64l16.49 153.24 -1194.57 1.05 52.62 -150.24 1125.46 -4.05z"/>
     <polygon class="fil0" points="1668.76,2563.68 1695.83,2740.2 2614.09,2702.38 2008.97,991.51 1478.1,995.2 1670.94,2563.69 "/>
     <polygon class="fil0" points="1435.28,726.98 1475.25,1004.15 940.73,1003.09 1019.04,715.68 1432.06,718.04 "/>
     <polygon class="fil0" points="1438.48,722.76 1475.25,1004.15 2001.19,1005.2 1917.58,719.91 "/>
     <path class="fil1" d="M1454.9 997.82l-1.68 12.48c171.21,0.36 342.42,0.79 513.61,1.25 -27.45,-101.1 -84.77,-197.91 -103.02,-296.9l-848.13 -5.3 -4.65 -0.02 -78.57 300.08c173.58,0.22 347.17,0.52 520.76,0.89l1.68 -12.48 -506.55 -1.04 71.94 -274.74 386.89 -0.39 445.03 5.61 99.85 271.59 -497.16 -1.03z"/>
     <g>
      <path class="fil1" d="M1944.14 1656.25l56.26 162.56 116.8 337.43 -91.68 -4.92 -26.72 -89.53 -32.35 -1.73 16.98 88.99 -92.84 -4.98 -76.22 -494.78 129.77 6.96zm30.72 317.41c-18.09,-56.6 -39.68,-126.61 -64.87,-210.16 14.52,95.07 26.01,164.54 34.41,208.53l30.46 1.63z"/>
      <polygon class="fil1" points="2118.82,1754.35 2218.54,2161.68 2130,2156.93 2030.27,1749.59 "/>
      <ellipse class="fil1" transform="matrix(1.02583 0.0928465 -0 0.926668 2058.73 1694.01)" rx="49.21" ry="45.51"/>
      <ellipse class="fil2" transform="matrix(0.519176 0.0469901 -0 0.468991 2058.73 1694.01)" rx="49.21" ry="45.51"/>
      <g>
       <polygon class="fil2" points="2068.03,1808 2081.27,1804.71 2099.72,1925.17 2123.36,1919.3 2136.61,1916.01 2138.69,1929.62 2172.32,2149.24 2159.08,2152.53 2125.45,1932.9 2101.8,1938.78 2088.55,1942.06 2086.47,1928.46 "/>
       <polygon class="fil2" points="2069.53,1817.84 2100.99,1810.03 2098.98,1796.91 2067.52,1804.72 "/>
       <polygon class="fil2" points="2100.99,1810.03 2092.56,1754.98 2079.79,1758.15 2088.21,1813.2 "/>
      </g>
     </g>
     <polygon class="fil2" points="1079.45,3435.8 2716.05,3435.8 2611.27,4333.26 885.6,4333.26 "/>
     <rect class="fil2" x="1481.23" y="3312.99" width="984.3" height="55.03" rx="8.13" ry="8.99"/>
     <rect class="fil2" transform="matrix(0.998991 0.044902 -0.044902 0.998991 1629.4 3234.84)" width="46.57" height="241.3" rx="6.88" ry="6.88"/>
     <rect class="fil2" transform="matrix(0.999633 0.0271061 -0.0271061 0.999633 2297.17 3226.71)" width="46.57" height="241.3" rx="6.88" ry="6.88"/>
    </g>
   </g>
  </g>
  <polygon class="fil3" points="-0.01,-0.02 3217.33,-0.02 3217.33,5260.52 -0.01,5260.52 "/>
  <path class="fil4 str1" d="M-14297.21 1802.21c-1.62,11.4 0.68,37.69 1.62,37.61 0,0 0,0 1.08,-0.03 2.45,-0.06 4.09,-0.06 6.54,0 1.08,0.03 1.08,0.03 1.08,0.03 0.94,0.08 3.22,-25.95 1.64,-37.44 -1.71,0.66 -3.68,1.03 -5.77,1.03 -2.26,0 -4.38,-0.44 -6.19,-1.2z"/>
  <rect class="fil5" x="-13724.49" y="1817.44" width="6096" height="6096"/>
 </g>
</svg>
